<svg width="318" height="101" viewBox="0 0 318 101" fill="none" xmlns="http://www.w3.org/2000/svg">
<path fill-rule="evenodd" clip-rule="evenodd" d="M24.9169 88.9023L24.6129 87.257L26.5901 86.8916V88.9023H24.9169ZM90.6669 86.8916C92.6251 87.348 92.6252 87.3477 92.6253 87.3472L92.8106 86.5512C92.9315 86.0315 93.1087 85.2689 93.3341 84.297C93.785 82.3533 94.4288 79.5725 95.2008 76.2236C96.7446 69.526 98.801 60.5551 100.851 51.4636C102.9 42.3738 104.945 33.1563 106.465 25.9681C107.224 22.3757 107.855 19.2785 108.29 16.9532C108.507 15.7922 108.679 14.8082 108.793 14.0443C108.895 13.3637 108.987 12.6494 108.96 12.1656L108.846 10.1149L106.798 10.2724C104.827 10.424 101.456 10.4265 98.5043 10.3864C97.0442 10.3666 95.7122 10.3368 94.7449 10.312C94.2615 10.2996 93.8696 10.2885 93.5991 10.2805C93.4638 10.2764 93.3589 10.2732 93.288 10.271L93.1816 10.2676L91.5437 10.2136L79.9457 58.3899L66.4439 33.0623L49.6105 32.8148L36.6638 54.8788L28.9229 11.2754L27.2902 11.2254L27.2287 13.2351C27.2902 11.2254 27.2904 11.2254 27.2902 11.2254L27.1692 11.2218C27.0907 11.2195 26.9754 11.2162 26.8275 11.2121C26.5315 11.2039 26.1044 11.1926 25.5786 11.1801C24.5273 11.155 23.0792 11.1249 21.4931 11.1049C18.3517 11.0651 14.5683 11.0629 12.2868 11.2298L10 11.3971L10.4646 13.6425C13.0153 25.9709 16.5516 44.3698 19.4521 59.6975C20.9019 67.359 22.1922 74.2492 23.12 79.224C23.5839 81.7114 23.9571 83.7198 24.2144 85.1063C24.343 85.7996 24.4427 86.3374 24.5101 86.7018L24.6129 87.257C24.6129 87.2573 24.6129 87.257 26.5901 86.8916C26.5901 88.9023 26.59 88.9023 26.5901 88.9023H40.7211L41.2736 87.779C43.4446 83.3647 45.3496 79.1745 47.2119 75.0784C50.4756 67.8998 53.608 61.0101 57.8103 53.7091C59.5243 56.8381 61.8779 61.0961 64.3602 65.5869C69.1825 74.3113 74.4905 83.9143 76.5388 87.8246L77.0867 88.8705L78.267 88.9016C80.3249 88.9558 83.4408 88.9555 86.0206 88.9422C87.3151 88.9355 88.4826 88.9255 89.3264 88.9172C89.7483 88.913 90.0896 88.9092 90.3254 88.9065L90.6923 88.9021C90.6923 88.9021 90.6927 88.9021 90.6669 86.8916ZM56.684 51.6458C57.0746 50.9797 57.4741 50.3104 57.8834 49.6376C58.1927 50.2119 58.5672 50.9014 58.996 51.6867C60.7178 54.84 63.3153 59.5395 66.079 64.5399C70.9193 73.2972 76.2696 82.9775 78.3199 86.8916C82.3646 86.998 90.6669 86.8916 90.6669 86.8916L92.6253 87.3472L92.2676 88.8819L90.6923 88.9021L90.6669 86.8916C90.6669 86.8916 104.708 26.6517 106.716 14.3093C106.885 13.2728 106.969 12.574 106.952 12.2772C106.537 12.3091 106.066 12.3347 105.554 12.3548C100.959 12.5357 93.1151 12.2772 93.1151 12.2772L80.6616 64.007L65.2278 35.0553L50.7519 34.8424L35.6375 60.6009L27.2287 13.2351C27.2287 13.2351 19.3972 12.9954 14.4669 13.1391C13.7071 13.1612 13.0163 13.1925 12.4336 13.2351C12.5673 13.8814 12.7037 14.5443 12.8426 15.2226C18.0101 40.4585 26.5901 86.8916 26.5901 86.8916H39.4693C41.5838 82.5921 43.4649 78.456 45.3174 74.3829C48.7653 66.8018 52.1141 59.4386 56.684 51.6458ZM115.958 72.7467H162.308L162.549 74.4808C162.837 76.5569 162.887 79.6171 162.874 82.0595C162.867 83.3017 162.844 84.421 162.822 85.2297C162.811 85.6344 162.8 85.962 162.792 86.1893C162.788 86.3029 162.785 86.3915 162.783 86.4522L162.779 86.5452L162.779 86.5466C162.779 86.5467 162.779 86.5473 160.77 86.4658C160.77 86.4658 161.089 78.5893 160.557 74.7574H117.768C117.48 77.4985 117.387 81.9015 117.357 84.4551C117.343 85.6697 117.343 86.4658 117.343 86.4658C115.332 86.4658 115.332 86.4658 115.332 86.4656V86.464L115.332 86.4594L115.332 86.3751C115.332 86.3167 115.332 86.2311 115.333 86.121C115.334 85.9007 115.335 85.5824 115.339 85.1881C115.345 84.3998 115.359 83.3062 115.386 82.0842C115.439 79.6619 115.546 76.6606 115.769 74.547L115.958 72.7467ZM117.343 86.4658H160.77L162.779 86.5466L162.701 88.4765H115.332V86.4656L117.343 86.4658ZM112.766 37.5034C113.724 26.2208 120.004 18.5571 130.435 14.5124C140.653 10.6806 152.361 13.5544 159.28 21.431C170.669 34.3102 165.879 54.4274 149.594 61.5589C145.975 63.1555 142.25 64.1134 138.524 63.9006C123.41 63.7941 111.595 51.9793 112.766 37.5034ZM160.79 20.1034C153.301 11.5782 140.703 8.51457 129.729 12.6297L129.718 12.6337L129.708 12.6377C124.218 14.7666 119.719 17.8891 116.463 22.0558C113.203 26.2293 111.27 31.3482 110.762 37.3333L110.762 37.3413C109.487 53.1028 122.342 65.7714 138.46 65.9108C142.586 66.136 146.618 65.0689 150.402 63.4C167.854 55.7564 173.134 34.0676 160.79 20.1034ZM139.147 27.8057L139.132 27.8055C133.258 27.7151 128.072 32.6382 127.975 38.1583C127.983 44.5142 132.85 49.33 139.801 49.33C145.286 49.33 149.613 44.9128 149.712 38.8719C149.704 32.6636 144.986 27.8057 139.163 27.8057H139.147ZM151.723 38.8872C151.616 45.9122 146.507 51.3406 139.801 51.3406C131.818 51.3406 125.964 45.6993 125.964 38.1421C126.071 31.4364 132.244 25.6886 139.163 25.795C146.188 25.795 151.723 31.6492 151.723 38.8872ZM212.87 17.5992C223.408 24.4113 229.368 41.4417 217.766 52.405C217.46 52.7109 216.984 53.1876 216.465 53.6481C215.9 54.1493 215.285 54.6313 214.786 54.8532C215.239 55.2339 215.756 55.7211 216.324 56.2966C221.633 61.6735 231.37 74.7568 234.158 80.7181C230.007 83.0598 226.814 84.7628 222.662 86.4658C222.091 85.5987 221.52 84.7232 220.948 83.8451C218.638 80.304 216.301 76.7212 213.828 73.4802C211.593 70.6063 208.612 67.5195 206.058 65.0714C201.694 61.2396 190.518 62.4104 190.518 62.4104L189.347 86.0401H175.403L176.893 13.8738C176.893 13.8738 188.708 11.6385 194.669 12.0643C201.055 12.5965 207.229 13.9802 212.87 17.5992ZM176.893 13.8738L176.52 11.8981L174.917 12.2014L173.35 88.0508H191.26L192.437 64.2953C193.505 64.248 194.962 64.2236 196.539 64.3115C198.132 64.4004 199.796 64.6012 201.286 64.9859C202.78 65.3718 203.944 65.904 204.701 66.5563C207.214 68.9668 210.096 71.9587 212.235 74.7073C214.657 77.8814 216.94 81.3814 219.244 84.9137C219.822 85.7992 220.4 86.6868 220.983 87.5717L221.894 88.9545L223.426 88.3261C227.692 86.5757 230.97 84.8248 235.146 82.4694L236.769 81.5539L235.979 79.8662C234.34 76.3612 230.555 70.7357 226.678 65.5793C223.639 61.5378 220.396 57.5891 217.915 55.0482C218.427 54.5872 218.884 54.1308 219.168 53.8466C225.526 47.8247 227.067 40.0942 225.588 33.0332C224.123 26.037 219.689 19.6129 213.962 15.9106L213.956 15.9068C207.933 12.0433 201.397 10.6073 194.836 10.0605L194.824 10.0596L194.812 10.0587C191.599 9.82921 186.966 10.3125 183.273 10.8172C181.398 11.0736 179.713 11.3431 178.497 11.5486C177.889 11.6514 177.397 11.7383 177.056 11.7997C176.886 11.8304 176.753 11.8548 176.662 11.8716L176.558 11.891L176.521 11.8979C176.52 11.898 176.52 11.8981 176.893 13.8738ZM206.767 32.1105L206.709 32.0356C204.534 29.2523 200.742 27.9479 197.115 27.4116C195.35 27.1505 193.731 27.0875 192.552 27.0906C192.533 27.0906 192.514 27.0907 192.495 27.0908L192.137 47.3765C192.164 47.3769 192.191 47.3773 192.218 47.3776C193.466 47.3937 195.17 47.3742 197.003 47.2336C198.844 47.0925 200.766 46.8329 202.468 46.3857C204.206 45.9291 205.523 45.3255 206.323 44.6184L206.341 44.6021L206.36 44.5862C208.183 43.0534 209.083 40.7982 209.117 38.4332C209.15 36.047 208.294 33.725 206.832 32.1795L206.767 32.1105ZM190.092 49.3183L190.518 25.1564C190.518 25.1564 202.971 23.9856 208.293 30.7977C212.018 34.736 212.338 42.1868 207.654 46.1251C203.078 50.1698 190.092 49.3183 190.092 49.3183ZM291.641 69.9676C293.237 71.7771 295.26 73.3737 297.495 74.5446L298.133 74.8639C299.653 75.5477 301.281 76.0688 302.901 76.5821C302.947 76.5966 302.993 76.6111 303.039 76.6256C303.642 76.8167 304.245 77.0074 304.839 77.2056L299.411 87.956C299.411 87.956 292.811 86.5723 290.896 85.8272C282.7 82.1018 277.165 75.7154 273.333 67.5195C272.375 65.2843 271.417 63.049 270.353 61.0267C266.734 54.4274 261.412 54.1081 256.303 60.6009C256.303 68.1582 255.983 86.6787 255.983 86.6787H241.933C241.933 86.6787 241.946 85.9499 241.969 84.668C242.119 76.3375 242.678 44.6489 242.678 37.8228C242.678 29.8398 242.785 12.5965 242.785 12.5965H255.877C255.877 12.5965 255.877 30.3752 256.128 39.9743C256.149 40.7735 256.172 41.516 256.196 42.1868C256.679 41.9826 257.353 41.61 258.171 41.0904C261.967 38.6807 268.877 33.1104 274.28 26.521C274.391 26.3859 274.501 26.2503 274.61 26.1144L284.828 34.4167C282.103 38.1464 277.444 41.9727 274.695 44.0719C273.365 45.0879 272.481 45.6993 272.481 45.6993C272.481 45.6993 273.865 45.9122 274.61 46.1251C274.784 46.1636 274.953 46.2126 275.121 46.2695C275.673 46.4577 276.193 46.7325 276.706 47.0028C276.895 47.1027 277.083 47.2019 277.271 47.2959C278.974 48.3603 280.571 49.6376 281.742 51.2342C283.111 53.1078 283.943 55.3229 284.768 57.5162C285.161 58.5625 285.552 59.6039 285.999 60.6009C287.383 64.007 289.192 67.2002 291.641 69.9676ZM276.951 44.8664C277.26 45.0164 277.539 45.1651 277.776 45.2911C277.926 45.3709 278.058 45.4415 278.17 45.4975L278.256 45.5402L278.337 45.5909C280.159 46.7296 281.986 48.167 283.363 50.0452L283.365 50.0479C284.528 51.6396 285.321 53.3985 285.979 55.0564C286.236 55.7032 286.464 56.3112 286.683 56.8964C287.059 57.8967 287.409 58.8305 287.834 59.7784L287.849 59.811L287.862 59.8441C289.182 63.092 290.882 66.076 293.147 68.6354L293.148 68.6373C294.578 70.2575 296.399 71.6982 298.411 72.7548C298.417 72.7577 298.422 72.7606 298.428 72.7634L298.995 73.0466C300.432 73.6899 301.932 74.1651 303.544 74.6756C304.17 74.8738 304.813 75.0773 305.475 75.298L307.683 76.0341L300.509 90.2408L298.998 89.9239L299.411 87.956C298.998 89.9239 298.998 89.9239 298.998 89.9239L298.996 89.9236L298.993 89.9227L298.92 89.9075L298.704 89.8615C298.517 89.8217 298.249 89.7641 297.921 89.6927C297.267 89.5501 296.373 89.3517 295.416 89.1295C293.574 88.7014 291.287 88.137 290.167 87.7012L290.115 87.6809L290.063 87.6577C281.336 83.6908 275.497 76.8951 271.511 68.3711L271.498 68.3416L271.485 68.3116C270.523 66.0667 269.599 63.9132 268.581 61.9786C266.93 58.9743 265.209 57.9673 263.809 57.9135C262.429 57.8604 260.526 58.6876 258.312 61.3162C258.304 65.1804 258.228 71.2659 258.153 76.5026C258.113 79.2915 258.073 81.844 258.044 83.6993C258.029 84.6269 258.016 85.3803 258.007 85.9018L257.994 86.71L257.96 88.6894H239.886L239.923 86.6422L240.12 86.6456C239.923 86.642 239.923 86.6423 239.923 86.6422L239.923 86.6403L239.923 86.6347L239.955 84.8664C239.975 83.7307 240.004 82.0994 240.039 80.1172C240.109 76.1527 240.202 70.7849 240.295 65.1711C240.482 53.9317 240.667 41.7398 240.667 37.8228C240.667 33.8256 240.694 27.5142 240.721 22.2059C240.734 19.551 240.747 17.1456 240.757 15.404C240.762 14.5331 240.766 13.8282 240.769 13.341L240.774 12.5849L240.786 10.5858H257.887V12.5965H255.877C257.887 12.5965 257.887 12.5963 257.887 12.5965L257.888 13.5078C257.889 14.0945 257.89 14.9427 257.892 15.9878C257.897 18.0782 257.907 20.9559 257.927 24.1059C257.958 28.9758 258.013 34.4751 258.109 38.7217C259.374 37.8551 260.943 36.6805 262.683 35.2374C266.04 32.4526 269.849 28.8214 273.044 24.8533L274.311 23.2803L287.579 34.0607L286.452 35.603C284.276 38.5801 281.03 41.5301 278.417 43.6848C277.905 44.1072 277.413 44.5029 276.951 44.8664Z" fill="black"/>
<path d="M26.5901 86.8915C26.5901 86.8915 35.4246 86.8915 39.4693 86.8915C45.8557 73.9058 50.1133 62.4103 57.8835 49.6375C61.6089 56.5561 74.8074 80.1858 78.3199 86.8915C82.3647 86.9979 90.667 86.8915 90.667 86.8915C90.667 86.8915 107.165 16.1089 106.952 12.2771C102.801 12.5964 93.1151 12.2771 93.1151 12.2771L80.6616 64.0069L65.2278 35.0552L50.752 34.8423L35.6375 60.6008L27.2288 13.235C27.2288 13.235 16.7976 12.9157 12.4336 13.235C17.5427 37.9291 26.5901 86.8915 26.5901 86.8915Z" fill="url(#paint0_linear_62_203)"/>
<path d="M117.768 74.7573C117.343 78.8021 117.343 86.4657 117.343 86.4657H160.77C160.77 86.4657 161.089 78.5892 160.557 74.7573C146.188 74.7573 132.138 74.7573 117.768 74.7573ZM138.524 63.9005C142.25 64.1133 145.975 63.1554 149.594 61.5588C165.879 54.4273 170.669 34.3101 159.28 21.4309C152.361 13.5543 140.653 10.6805 130.435 14.5123C120.004 18.557 113.724 26.2207 112.766 37.5033C111.595 51.9792 123.41 63.794 138.524 63.9005ZM139.163 25.7949C146.188 25.7949 151.723 31.6491 151.723 38.8871C151.616 45.9121 146.507 51.3405 139.801 51.3405C131.819 51.3405 125.964 45.6992 125.964 38.142C126.071 31.4363 132.244 25.6885 139.163 25.7949Z" fill="url(#paint1_linear_62_203)"/>
<path d="M214.786 54.8531C215.744 54.4273 217.128 53.0436 217.766 52.4049C229.368 41.4416 223.408 24.4112 212.87 17.5991C207.229 13.9801 201.055 12.5964 194.669 12.0642C188.708 11.6384 176.893 13.8737 176.893 13.8737L175.403 86.04H189.347L190.518 62.4103C190.518 62.4103 201.694 61.2395 206.058 65.0713C208.612 67.5194 211.593 70.6062 213.828 73.48C216.915 77.5248 219.789 82.1017 222.663 86.4657C226.814 84.7627 230.007 83.0597 234.158 80.718C231.071 74.1187 219.469 58.7913 214.786 54.8531ZM190.518 25.1563C190.518 25.1563 202.971 23.9855 208.293 30.7976C212.019 34.7359 212.338 42.1867 207.654 46.125C203.078 50.1697 190.092 49.3182 190.092 49.3182L190.518 25.1563Z" fill="url(#paint2_linear_62_203)"/>
<path d="M298.133 74.8638C297.921 74.7573 297.708 74.6509 297.495 74.5444C295.26 73.3736 293.237 71.777 291.641 69.9675C289.193 67.2001 287.383 64.0069 285.999 60.6008C284.616 57.5141 283.764 54.0015 281.742 51.2341C280.571 49.6375 278.974 48.3602 277.271 47.2958C276.42 46.8701 275.568 46.3379 274.61 46.125C273.865 45.9121 272.481 45.6992 272.481 45.6992C272.481 45.6992 280.784 39.9515 284.828 34.4166L274.61 26.1143C268.011 34.3101 258.964 41.0159 256.196 42.1867C255.877 33.4586 255.877 12.5964 255.877 12.5964H242.785C242.785 12.5964 242.678 29.8397 242.678 37.8227C242.678 45.6992 241.933 86.6786 241.933 86.6786H255.983C255.983 86.6786 256.303 68.1581 256.303 60.6008C261.412 54.108 266.734 54.4273 270.353 61.0266C271.417 63.0489 272.375 65.2842 273.333 67.5194C277.165 75.7153 282.7 82.1017 290.896 85.8271C292.811 86.5722 299.411 87.9559 299.411 87.9559L304.839 77.2055C302.604 76.4604 300.262 75.8217 298.133 74.8638Z" fill="url(#paint3_linear_62_203)"/>
<defs>
<linearGradient id="paint0_linear_62_203" x1="50.5734" y1="20.2782" x2="91.3739" y2="136.028" gradientUnits="userSpaceOnUse">
<stop stop-color="#57FFAE"/>
<stop offset="0.526936" stop-color="#E02FFD"/>
<stop offset="1" stop-color="#FDC32F"/>
</linearGradient>
<linearGradient id="paint1_linear_62_203" x1="50.5734" y1="20.2782" x2="91.3739" y2="136.028" gradientUnits="userSpaceOnUse">
<stop stop-color="#57FFAE"/>
<stop offset="0.526936" stop-color="#E02FFD"/>
<stop offset="1" stop-color="#FDC32F"/>
</linearGradient>
<linearGradient id="paint2_linear_62_203" x1="50.5734" y1="20.2782" x2="91.3739" y2="136.028" gradientUnits="userSpaceOnUse">
<stop stop-color="#57FFAE"/>
<stop offset="0.526936" stop-color="#E02FFD"/>
<stop offset="1" stop-color="#FDC32F"/>
</linearGradient>
<linearGradient id="paint3_linear_62_203" x1="50.5734" y1="20.2782" x2="91.3739" y2="136.028" gradientUnits="userSpaceOnUse">
<stop stop-color="#57FFAE"/>
<stop offset="0.526936" stop-color="#E02FFD"/>
<stop offset="1" stop-color="#FDC32F"/>
</linearGradient>
</defs>
</svg>
