<svg width="439" height="118" viewBox="0 0 439 118" fill="none" xmlns="http://www.w3.org/2000/svg">
<path d="M37.8874 71.4821C47.5734 70.2049 55.7693 66.5859 62.7943 59.4544C67.797 54.2389 70.7773 47.9589 70.8838 40.6146C70.9902 31.2478 66.839 24.1164 59.814 18.6879C49.9151 11.2371 38.7389 9.42764 26.924 11.0242C23.8373 11.3436 20.6441 11.8758 17.6638 13.5788C16.7058 37.4214 16.0672 60.8381 16.7058 85C21.1763 85 30.8623 85 30.8623 85L31.1816 72.2272C31.1816 72.2272 35.7586 71.695 37.8874 71.4821ZM47.3605 24.8614C55.45 28.0546 58.7496 40.8274 54.8113 48.1718C53.534 50.7263 51.5117 52.5358 49.17 54.026C43.7416 57.8578 30.8623 59.348 30.8623 59.348L30.9688 23.1584C30.9688 23.1584 41.0806 22.4133 47.3605 24.8614Z" fill="white"/>
<path d="M158.229 73.2916C158.123 52.6423 158.655 11.45 158.655 11.45L145.031 12.0886C145.031 12.0886 144.179 72.4401 145.137 76.2719C149.395 76.2719 153.865 75.2075 158.229 73.2916ZM163.232 81.1682C158.336 83.4034 153.333 85.1065 147.585 85.2129C141.625 85.3193 136.09 83.6163 131.087 80.3167C127.575 78.0814 116.398 67.0117 113.844 63.8185C117.037 62.009 119.272 60.5188 121.614 58.2836C124.062 55.9419 126.085 53.2809 128 50.5135C133.322 42.3176 132.577 30.3963 125.872 23.2648C122.678 19.7523 118.953 16.6656 114.483 14.7496C104.158 10.2792 81.4862 11.5564 81.1669 11.7693C80.3153 15.4947 80.4218 81.9133 81.1669 84.4678C85.5309 84.3614 89.8949 84.4678 94.7912 84.4678C94.6847 79.0394 94.6847 74.356 94.5783 69.2469C97.6651 68.6083 99.3681 70.3113 101.178 71.5886C106.18 75.314 109.906 80.2102 114.27 84.6807C118.527 89.1512 123.211 93.3023 128.958 95.7505C141.944 101.711 155.888 102.456 170.044 92.983L163.232 81.1682ZM94.6847 55.9419C94.6847 52.6423 93.8332 28.4804 94.3654 24.3292C105.861 22.5198 115.653 26.8838 118.102 37.7407C119.059 41.2532 117.889 44.34 115.866 47.1074C113.737 50.1942 110.97 52.4294 107.564 53.8131C103.839 55.3033 99.4745 56.0484 94.6847 55.9419Z" fill="white"/>
<path d="M226.242 63.2863C226.136 63.3927 214.214 74.5689 202.825 73.2916C185.476 71.2693 183.666 56.1548 183.772 49.662C183.879 37.9536 189.201 29.9706 199.526 26.0323C213.363 20.8167 223.581 33.3766 224.007 33.9088L233.48 24.4357C232.735 23.5842 217.727 4.74428 195.162 13.2595C179.515 19.1137 170.893 32.0994 170.787 49.5555C170.574 65.0957 178.557 84.2549 201.335 86.8095C202.506 86.9159 203.57 87.0224 204.741 87.0224C220.707 87.0224 233.586 74.6753 234.225 74.0367L226.242 63.2863Z" fill="white"/>
<path d="M259.265 85C260.649 59.8802 259.691 35.8248 258.307 10.7049C253.092 10.5985 248.302 10.0663 243.299 11.0242C243.618 36.1441 244.044 59.8802 244.363 85C249.26 85.2129 254.582 85.5322 259.265 85Z" fill="white"/>
<path d="M273.56 84.4678C277.924 84.3614 286.652 84.3614 288.355 84.3614L287.61 33.4831L327.738 84.5743C328.908 84.4678 337.743 84.1485 341.894 84.1485C342.213 61.1575 342.213 16.8784 342.213 12.7273L328.163 13.153C328.163 16.4527 328.483 46.3623 328.27 61.1575V62.009L327.738 61.2639C315.071 43.2756 302.724 27.7353 290.909 12.8337L289.526 11.0242H273.985C273.027 35.9312 273.24 60.9446 273.56 84.4678Z" fill="white"/>
<path d="M421.659 27.7353C420.169 24.6486 418.253 21.9876 416.124 19.433C403.671 4.63783 380.999 2.29616 365.565 16.4527C351.409 29.6512 348.109 52.4294 360.137 69.6727C367.694 80.5295 378.551 86.1709 391.856 85.1065C407.077 83.9356 419.956 72.7594 424.107 58.0707C425.172 54.026 425.278 50.0877 424.533 45.5108C414.315 44.9786 403.99 45.4044 393.772 46.4688C393.346 50.3006 393.453 53.8131 393.772 57.5385C399.52 57.645 406.225 57.0063 410.909 57.2192C410.909 57.7514 404.097 71.2693 388.876 71.5886C380.467 71.5886 374.613 67.4374 370.142 60.4124C366.31 54.2389 365.885 47.4267 367.056 40.6146C368.759 31.1414 376.422 22.5198 385.576 20.8167C404.097 18.3686 410.483 35.2926 410.483 35.2926L424.107 35.1861C424.107 35.1861 422.83 29.9706 421.659 27.7353Z" fill="white"/>
<path fill-rule="evenodd" clip-rule="evenodd" d="M38.1188 73.4796L38.0874 73.4827C37.0378 73.5877 35.3736 73.7726 33.9623 73.9323C33.6776 73.9646 33.4037 73.9957 33.148 74.0249L32.8233 87.0106H30.8623V84.9999L31.1816 72.2271C31.1816 72.2271 35.7585 71.6949 37.8873 71.482C47.5733 70.2047 55.7692 66.5858 62.7943 59.4543C67.7969 54.2387 70.7773 47.9588 70.8837 40.6144C70.9901 31.2477 66.839 24.1162 59.8139 18.6878C49.915 11.237 38.7388 9.42751 26.924 11.0241C23.8372 11.3434 20.644 11.8756 17.6637 13.5787C16.7057 37.4212 16.0671 60.838 16.7057 84.9999H30.8623C30.8623 87.0106 30.8623 87.0106 30.8623 87.0106H14.7475L14.6958 85.053C14.0553 60.8238 14.6961 37.3544 15.6546 13.498L15.6993 12.3854L16.6661 11.8329C20.0142 9.91972 23.5441 9.35365 26.6859 9.02732C38.8818 7.38508 50.6145 9.24686 61.0231 17.0813L61.0333 17.089L61.0434 17.0968C68.4899 22.8509 73.0089 30.5478 72.8943 40.6373L72.8942 40.6436C72.7793 48.5678 69.5476 55.3183 64.2453 60.8462L64.2361 60.8558L64.2267 60.8653C56.848 68.3558 48.2208 72.1475 38.1502 73.4755L38.1188 73.4796ZM54.8113 48.1717C58.7495 40.8273 55.4499 28.0545 47.3605 24.8613C41.0805 22.4132 30.9687 23.1583 30.9687 23.1583L30.8623 59.3479C30.8623 59.3479 31.6317 59.2588 32.8738 59.0683C36.7132 58.4795 45.0684 56.9211 49.1699 54.0259C51.5116 52.5357 53.534 50.7262 54.8113 48.1717ZM32.8798 57.0326C34.1201 56.8375 35.7642 56.5498 37.5514 56.1594C41.4552 55.3067 45.6634 54.0399 48.0104 52.3832L48.0498 52.3554L48.0905 52.3295C50.2568 50.9509 51.9567 49.3848 53.0128 47.2725L53.0257 47.2468L53.0393 47.2215C54.6937 44.1361 54.905 39.6817 53.6693 35.5339C52.4328 31.3839 49.9013 28.0278 46.626 26.7331C43.8134 25.6377 39.9972 25.219 36.737 25.1011C35.2706 25.0481 33.9614 25.0571 32.9737 25.0824L32.8798 57.0326ZM160.24 73.2811L160.247 74.6017L159.038 75.1326C154.47 77.1379 149.724 78.2825 145.137 78.2825H143.567L143.187 76.7595C143.078 76.3241 143.017 75.6927 142.973 75.0621C142.924 74.3741 142.883 73.5015 142.848 72.4819C142.779 70.44 142.733 67.7487 142.706 64.6444C142.651 58.4325 142.668 50.5175 142.714 42.7312C142.761 34.9429 142.837 27.2754 142.902 21.5555C142.935 18.6954 142.964 16.3219 142.986 14.6632C142.996 13.8339 143.005 13.1833 143.011 12.74L143.02 12.0609C143.02 12.0604 143.02 12.0601 145.031 12.0885C145.031 12.0885 144.179 72.44 145.137 76.2718C149.395 76.2718 153.865 75.2074 158.229 73.2915C158.137 55.3699 158.526 21.9742 158.63 13.464C158.646 12.1687 158.655 11.4499 158.655 11.4499C160.666 11.4758 160.666 11.476 160.666 11.4763L160.666 11.4777L160.643 13.2849C160.629 14.4511 160.608 16.1403 160.584 18.232C160.536 22.4153 160.473 28.2081 160.413 34.6459C160.293 47.5255 160.187 62.9727 160.24 73.2811ZM145.031 12.0885L143.02 12.0609L143.047 10.1686L160.693 9.34143L160.666 11.4763L158.655 11.4499L145.031 12.0885ZM164.061 78.5795L172.726 93.608L171.162 94.654C156.329 104.58 141.634 103.774 128.145 97.5892C122.032 94.9794 117.131 90.5998 112.822 86.076C111.48 84.701 110.156 83.2404 108.867 81.8193C108.061 80.9299 107.268 80.056 106.494 79.2283C104.429 77.019 102.348 74.9698 99.9966 73.216C99.7138 73.0161 99.4532 72.8261 99.2088 72.6479C98.208 71.9183 97.48 71.3875 96.6254 71.1946C96.6559 73.0562 96.6756 74.8781 96.6953 76.716L96.6966 76.8389C96.7228 79.2883 96.7493 81.7689 96.8014 84.4283L96.8416 86.4784H94.7911C93.0811 86.4784 91.4528 86.4658 89.8757 86.4536C86.8741 86.4303 84.0578 86.4085 81.2158 86.4778L79.6696 86.5155L79.2365 85.0307C79.1583 84.7625 79.1216 84.4596 79.1001 84.2643C79.0736 84.0229 79.05 83.7317 79.0283 83.4039C78.9848 82.7458 78.9451 81.8758 78.9085 80.8338C78.8353 78.7463 78.7731 75.9124 78.7223 72.5854C78.6206 65.9285 78.564 57.26 78.5574 48.559C78.5507 39.8583 78.594 31.1159 78.6923 24.3117C78.7414 20.911 78.8045 17.9849 78.8823 15.7866C78.9212 14.6888 78.9642 13.7599 79.012 13.0386C79.0558 12.3771 79.1117 11.7368 79.2067 11.3212L79.3851 10.5404L80.0515 10.0962C80.2708 9.95 80.4688 9.88174 80.5247 9.86253C80.6098 9.83327 80.6816 9.81469 80.7247 9.80427C80.8119 9.78313 80.8899 9.76956 80.9394 9.76154C81.0441 9.74457 81.1584 9.73075 81.2658 9.71923C81.4873 9.69548 81.7801 9.67101 82.1273 9.64691C82.8265 9.59836 83.8027 9.5474 84.9864 9.50688C87.3546 9.4258 90.5849 9.38538 94.1338 9.49333C101.124 9.70596 109.725 10.4997 115.278 12.9029C120.089 14.9654 124.036 18.2583 127.348 21.8996C134.715 29.7467 135.48 42.6869 129.687 51.6084L129.671 51.6334L129.654 51.6579C127.71 54.4658 125.597 57.256 123.004 59.7365L123.002 59.7379C121.07 61.5828 119.206 62.9468 116.957 64.3229C118.573 66.0788 120.987 68.5399 123.506 70.9834C127.101 74.4706 130.619 77.6351 132.167 78.6202L132.181 78.629L132.194 78.6381C136.878 81.7272 142.017 83.3009 147.548 83.2024C152.904 83.1032 157.618 81.5207 162.397 79.339L164.061 78.5795ZM147.585 85.2128C141.625 85.3192 136.09 83.6162 131.087 80.3165C128.017 78.3629 119.093 69.6609 115.188 65.3671C114.624 64.7481 114.166 64.2207 113.844 63.8183C114.464 63.4672 115.047 63.128 115.603 62.7931C117.909 61.4024 119.727 60.0849 121.614 58.2835C124.062 55.9418 126.084 53.2808 128 50.5133C133.322 42.3175 132.577 30.3962 125.872 23.2647C122.678 19.7522 118.953 16.6654 114.483 14.7495C104.158 10.279 81.4861 11.5563 81.1668 11.7692C80.3153 15.4946 80.4217 81.9131 81.1668 84.4677C84.0392 84.3976 86.9116 84.4198 89.9358 84.4431C90.868 84.4503 91.8145 84.4576 92.7799 84.4624C93.441 84.4656 94.1109 84.4677 94.7911 84.4677C94.7778 83.7865 94.7661 83.1171 94.7557 82.457C94.7252 80.5319 94.7055 78.687 94.686 76.8647C94.659 74.3329 94.6324 71.8449 94.5782 69.2468C97.2628 68.6914 98.9007 69.9071 100.472 71.0736C100.708 71.2483 100.942 71.422 101.178 71.5885C104.656 74.1789 107.517 77.3355 110.405 80.5214C111.67 81.9172 112.94 83.3187 114.27 84.6806C118.527 89.1511 123.211 93.3022 128.958 95.7503C141.944 101.711 155.888 102.456 170.044 92.9829L163.232 81.1681C158.336 83.4033 153.333 85.1063 147.585 85.2128ZM118.101 37.7405C115.653 26.8837 105.861 22.5196 94.3654 24.3291C93.9752 27.3727 94.3288 41.1738 94.5453 49.6219C94.6241 52.6961 94.6847 55.0614 94.6847 55.9418C95.2865 55.9552 95.8817 55.9551 96.4697 55.9418C96.545 55.9401 96.6203 55.9382 96.6954 55.936C100.699 55.822 104.367 55.0919 107.564 53.813C110.97 52.4293 113.737 50.194 115.866 47.1073C117.889 44.3398 119.059 41.2531 118.101 37.7405ZM106.812 51.948C109.845 50.7149 112.301 48.7348 114.211 45.9657L114.227 45.9431L114.243 45.9209C116.066 43.4266 116.898 40.9708 116.162 38.2696L116.15 38.2265L116.14 38.1828C115.042 33.3112 112.344 30.0014 108.684 28.0614C105.336 26.2861 101.055 25.5964 96.2578 26.1067C96.2165 27.207 96.1983 28.7262 96.2014 30.5524C96.2064 33.4333 96.2626 36.9306 96.3357 40.4126C96.4029 43.6135 96.4849 46.8189 96.5537 49.5052C96.5982 51.2433 96.6371 52.7639 96.6628 53.9254C100.447 53.8152 103.868 53.1252 106.812 51.948ZM226.467 60.2172L236.874 74.2312L235.647 75.4584C235.244 75.861 231.736 79.2218 226.263 82.4946C220.802 85.7602 213.227 89.033 204.741 89.033C203.565 89.033 202.486 88.9341 201.434 88.8375C201.34 88.8289 201.246 88.8203 201.153 88.8118L201.132 88.8099L201.111 88.8075C189.128 87.4636 180.918 81.7107 175.779 74.1861C170.683 66.725 168.667 57.6243 168.776 49.5357C168.89 31.3143 177.972 17.5454 194.454 11.3773C206.424 6.86128 216.442 9.61586 223.49 13.5827C226.998 15.5575 229.779 17.8339 231.729 19.6677C232.706 20.5863 233.479 21.398 234.035 22.0112C234.313 22.318 234.536 22.5745 234.702 22.7687C234.785 22.8655 234.853 22.9464 234.905 23.0077L234.968 23.0823L234.987 23.1045L234.993 23.1115L236.232 24.5272L223.84 36.919L222.437 35.1648C222.291 34.9822 219.809 31.9235 215.775 29.5476C211.776 27.192 206.41 25.5875 200.239 27.9122C195.405 29.7567 191.857 32.4981 189.49 36.0485C187.117 39.6081 185.834 44.1276 185.783 49.6801L185.783 49.6874L185.783 49.6948C185.732 52.784 186.149 57.7898 188.523 62.1998C190.831 66.4865 195.059 70.3606 203.053 71.2938C208.079 71.8559 213.429 69.6615 217.731 67.0831C221.776 64.6587 224.577 62.0875 224.806 61.8776C224.818 61.8667 224.822 61.8621 224.82 61.8643L226.467 60.2172ZM199.526 26.0321C210.63 21.8466 219.404 29.1089 222.656 32.4156C223.457 33.2294 223.923 33.8036 224.007 33.9087L233.48 24.4356C233.458 24.4108 233.425 24.371 233.379 24.3171C231.858 22.5138 217.072 4.99121 195.162 13.2594C179.515 19.1136 170.893 32.0992 170.787 49.5554C170.574 65.0956 178.557 84.2548 201.335 86.8094C201.426 86.8176 201.516 86.8259 201.605 86.8341C202.671 86.9317 203.661 87.0223 204.741 87.0223C220.707 87.0223 233.586 74.6752 234.225 74.0366L226.242 63.2861C226.22 63.3086 225.673 63.8219 224.718 64.6066C221.138 67.5476 211.816 74.2998 202.825 73.2915C185.475 71.2691 183.666 56.1547 183.772 49.6618C183.879 37.9534 189.201 29.9704 199.526 26.0321ZM261.179 86.806L259.492 86.9977C255.088 87.4982 250.166 87.2749 245.704 87.0726C245.222 87.0507 244.746 87.0291 244.276 87.0087L242.377 86.9261L242.353 85.0255C242.193 72.4685 242.007 60.257 241.821 48.0427L241.821 48.0407C241.634 35.8277 241.448 23.6119 241.288 11.0497L241.267 9.36598L242.921 9.04929C247.033 8.26191 251.076 8.42424 255.018 8.58254C256.136 8.62745 257.247 8.67204 258.348 8.69452L260.212 8.73256L260.315 10.5942C261.699 35.7263 262.663 59.874 261.273 85.1105L261.179 86.806ZM243.299 11.0241C247.161 10.2846 250.896 10.4331 254.798 10.5883C255.951 10.6341 257.118 10.6805 258.307 10.7048C259.691 35.8246 260.649 59.8801 259.265 84.9999C255.03 85.4811 250.274 85.2662 245.782 85.0632C245.306 85.0417 244.833 85.0203 244.363 84.9999C244.363 84.9999 244.363 84.9999 244.363 84.9999C244.204 72.44 244.017 60.2259 243.831 48.012C243.645 35.798 243.459 23.584 243.299 11.0241ZM273.609 86.4778L271.577 86.5274L271.549 84.495C271.23 60.9699 271.016 35.9107 271.976 10.9468L272.05 9.01341H290.519L292.485 11.5844L292.507 11.6122L293.051 12.2988C303.736 25.775 314.884 39.8345 326.311 55.7836C326.383 43.9791 326.256 27.4377 326.19 18.7334C326.168 15.8933 326.153 13.8876 326.153 13.1529V11.2022L344.224 10.6546V12.7295C344.224 16.8899 344.224 61.1725 343.905 84.1763L343.877 86.1591H341.894C337.764 86.1591 329 86.4783 327.92 86.5766L326.831 86.6755L289.707 39.409L290.395 86.372H288.355C286.641 86.372 277.942 86.3721 273.609 86.4778ZM287.61 33.4829L327.738 84.5741C328.908 84.4677 337.743 84.1484 341.894 84.1484C342.185 63.1986 342.211 24.573 342.213 14.7388C342.213 13.7806 342.213 13.0957 342.213 12.7272L328.163 13.1529C328.163 13.871 328.178 15.8495 328.2 18.6582C328.272 28.0426 328.414 46.6958 328.3 58.5754C328.293 59.3763 328.284 60.1464 328.274 60.8808C328.274 60.8827 328.274 60.8845 328.274 60.8863C328.272 60.9772 328.271 61.0676 328.27 61.1573V62.0089L327.738 61.2638C327.713 61.2283 327.688 61.1928 327.663 61.1573C327.66 61.1544 327.658 61.1515 327.656 61.1485C327.198 60.4981 326.74 59.851 326.283 59.2069C314.324 42.3647 302.658 27.6513 291.465 13.5348L290.909 12.8336L289.526 11.0241H273.985C273.055 35.2227 273.229 59.5218 273.533 82.4571C273.541 83.1285 273.55 83.7987 273.56 84.4677C274.158 84.4531 274.837 84.4405 275.57 84.4297C279.012 84.3786 283.617 84.3657 286.344 84.3624C287.271 84.3613 287.982 84.3613 288.355 84.3613L287.61 33.4829ZM416.124 19.4329C418.253 21.9874 420.169 24.6484 421.659 27.7352C422.358 29.0691 423.095 31.4645 423.575 33.1794C423.9 34.338 424.107 35.186 424.107 35.186L410.483 35.2924C410.483 35.2924 404.097 18.3685 385.576 20.8166C376.422 22.5196 368.758 31.1413 367.055 40.6144C365.885 47.4266 366.31 54.2387 370.142 60.4123C374.613 67.4373 380.467 71.5885 388.876 71.5885C400.727 71.3398 407.481 63.089 409.89 59.1973C410.563 58.1104 410.897 57.3635 410.908 57.2259C410.909 57.2234 410.909 57.2211 410.909 57.2191C410.273 57.1902 409.601 57.177 408.898 57.1755C408.845 57.1753 408.791 57.1753 408.736 57.1753C406.78 57.176 404.6 57.2638 402.354 57.3543C399.492 57.4697 396.522 57.5893 393.772 57.5384C393.453 53.813 393.346 50.3005 393.772 46.4686C403.99 45.4042 414.315 44.9785 424.533 45.5107C425.278 50.0876 425.172 54.0259 424.107 58.0706C419.956 72.7593 407.077 83.9355 391.856 85.1063C378.551 86.1707 367.694 80.5294 360.137 69.6725C348.109 52.4293 351.409 29.6511 365.565 16.4525C380.999 2.29603 403.671 4.63771 416.124 19.4329ZM358.487 70.8213C345.87 52.732 349.328 28.8416 364.194 14.9819L364.2 14.9763L364.206 14.9708C380.506 0.019762 404.493 2.49177 417.663 18.138L417.669 18.1456C419.85 20.7627 421.871 23.5563 423.456 26.8329C424.14 28.1497 424.793 30.173 425.251 31.7315C425.491 32.546 425.692 33.2868 425.834 33.8238C425.905 34.0927 425.961 34.3115 425.999 34.464C426.019 34.5403 426.034 34.6001 426.044 34.6414L426.056 34.6891L426.06 34.7059L426.06 34.707C426.06 34.7072 426.06 34.7077 424.107 35.186L426.06 34.707L426.665 37.1768L409.097 37.314L408.603 36.0067L408.603 36.0053L408.602 36.004L408.602 36.0023L408.595 35.9841C408.586 35.9625 408.571 35.9258 408.55 35.875C408.508 35.7734 408.44 35.6157 408.346 35.4107C408.157 35.0003 407.862 34.4028 407.452 33.6867C406.627 32.2499 405.352 30.3634 403.551 28.5558C399.996 24.9891 394.382 21.6975 385.892 22.803C377.702 24.354 370.612 32.2097 369.035 40.9642C367.918 47.4722 368.365 53.7293 371.845 59.3425C376.037 65.9254 381.309 69.571 388.855 69.5778C395.815 69.4256 400.857 66.2721 404.202 63.038C405.601 61.6863 406.691 60.3304 407.482 59.1973C406.032 59.2217 404.463 59.2819 402.82 59.3479L402.414 59.3642C399.569 59.4789 396.546 59.6008 393.735 59.5487L391.923 59.5152L391.769 57.7101C391.443 53.9123 391.328 50.257 391.773 46.2466L391.952 44.6366L393.564 44.4688C403.864 43.3958 414.295 42.964 424.638 43.5027L426.257 43.587L426.518 45.1876C427.301 49.9984 427.198 54.2251 426.052 58.5823L426.047 58.5999L426.042 58.6174C421.677 74.0638 408.127 85.8699 392.013 87.1109C377.942 88.2357 366.419 82.2173 358.487 70.8213Z" fill="black"/>
</svg>
