<svg width="318" height="101" viewBox="0 0 318 101" fill="none" xmlns="http://www.w3.org/2000/svg">
<path d="M26.5901 87.0505C26.5901 87.0505 35.4246 87.0505 39.4693 87.0505C45.8557 74.0649 50.1133 62.5693 57.8835 49.7965C61.6089 56.7151 74.8074 80.3448 78.3199 87.0505C82.3647 87.157 90.667 87.0505 90.667 87.0505C90.667 87.0505 107.165 16.2679 106.952 12.4361C102.801 12.7554 93.1151 12.4361 93.1151 12.4361L80.6616 64.1659L65.2278 35.2143L50.752 35.0014L35.6375 60.7599L27.2288 13.3941C27.2288 13.3941 16.7976 13.0747 12.4336 13.3941C17.5427 38.0881 26.5901 87.0505 26.5901 87.0505Z" fill="white"/>
<path d="M117.768 74.9164C117.343 78.9611 117.343 86.6248 117.343 86.6248H160.77C160.77 86.6248 161.089 78.7482 160.557 74.9164C146.188 74.9164 132.138 74.9164 117.768 74.9164ZM138.524 64.0595C142.25 64.2724 145.975 63.3144 149.594 61.7178C165.879 54.5863 170.669 34.4692 159.28 21.5899C152.361 13.7134 140.653 10.8395 130.435 14.6713C120.004 18.7161 113.724 26.3797 112.766 37.6624C111.595 52.1382 123.41 63.9531 138.524 64.0595ZM139.163 25.954C146.188 25.954 151.723 31.8082 151.723 39.0461C151.616 46.0711 146.507 51.4996 139.801 51.4996C131.819 51.4996 125.964 45.8583 125.964 38.301C126.071 31.5953 132.244 25.8475 139.163 25.954Z" fill="white"/>
<path d="M214.786 55.1185C215.744 54.6928 217.128 53.2026 217.766 52.6704C229.368 41.6007 223.408 24.5703 212.87 17.8645C207.229 14.2456 201.055 12.8619 194.669 12.3297C188.708 11.7975 176.893 14.1391 176.893 14.1391L175.403 86.199L189.347 86.3055L190.518 62.5693C190.518 62.5693 201.694 61.3985 206.058 65.3368C208.612 67.6785 211.593 70.7652 213.828 73.6391C216.915 77.6838 219.789 82.2607 222.663 86.6248C226.814 84.9217 230.007 83.3251 234.158 80.877C231.071 74.2777 219.469 59.0568 214.786 55.1185ZM190.518 25.3153C190.518 25.3153 202.971 24.1445 208.293 30.9567C212.019 35.0014 212.338 42.4522 207.654 46.3905C203.078 50.3287 190.092 49.5837 190.092 49.5837L190.518 25.3153Z" fill="white"/>
<path d="M298.133 75.0228C297.921 74.9164 297.708 74.8099 297.495 74.7035C295.26 73.5327 293.237 71.9361 291.641 70.1266C289.193 67.3591 287.383 64.1659 285.999 60.7599C284.616 57.6731 283.764 54.1606 281.742 51.3931C280.571 49.7965 278.974 48.5193 277.271 47.4549C276.42 47.0291 275.568 46.4969 274.61 46.284C273.865 46.0711 272.481 45.8583 272.481 45.8583C272.481 45.8583 280.784 40.1105 284.828 34.5756L274.61 26.2733C268.011 34.4692 258.964 41.1749 256.196 42.3457C255.877 33.6177 255.877 12.7554 255.877 12.7554H242.785C242.785 12.7554 242.678 29.9987 242.678 37.9817C242.678 45.8583 241.933 86.8377 241.933 86.8377H255.983C255.983 86.8377 256.303 68.3171 256.303 60.7599C261.412 54.267 266.734 54.5863 270.353 61.1856C271.417 63.208 272.375 65.4432 273.333 67.6785C277.165 75.8743 282.7 82.2607 290.896 85.9861C292.811 86.7312 299.411 88.1149 299.411 88.1149L304.839 77.3645C302.604 76.6194 300.262 75.9808 298.133 75.0228Z" fill="white"/>
<path fill-rule="evenodd" clip-rule="evenodd" d="M24.9169 89.0612L24.6129 87.4159L26.5901 87.0505V89.0612H24.9169ZM90.6669 87.0505C92.6251 87.507 92.6252 87.5067 92.6253 87.5061L92.8106 86.7101C92.9315 86.1904 93.1087 85.4278 93.3341 84.456C93.785 82.5123 94.4288 79.7314 95.2008 76.3825C96.7446 69.685 98.801 60.7141 100.851 51.6225C102.9 42.5328 104.945 33.3152 106.465 26.1271C107.224 22.5346 107.855 19.4374 108.29 17.1122C108.507 15.9512 108.679 14.9672 108.793 14.2033C108.895 13.5227 108.987 12.8083 108.96 12.3246L108.846 10.2738L106.798 10.4313C104.827 10.583 101.456 10.5854 98.5043 10.5454C97.0442 10.5255 95.7122 10.4958 94.7449 10.471C94.2615 10.4586 93.8696 10.4474 93.5991 10.4394C93.4638 10.4354 93.3589 10.4321 93.288 10.4299L93.1816 10.4265C93.1816 10.4265 93.1813 10.4265 93.1771 10.5551L93.1816 10.4265L91.5437 10.3725L79.9457 58.5488L66.4439 33.2212L49.6105 32.9737L36.6638 55.0378L28.9229 11.4343L27.2902 11.3843L27.2287 13.3941C27.2902 11.3843 27.2904 11.3843 27.2902 11.3843L27.1692 11.3807C27.0907 11.3784 26.9754 11.3751 26.8275 11.3711C26.5315 11.3629 26.1044 11.3516 25.5786 11.339C24.5273 11.314 23.0792 11.2839 21.4931 11.2638C18.3517 11.224 14.5683 11.2218 12.2868 11.3887L10 11.5561L10.4646 13.8015C13.0153 26.1299 16.5516 44.5288 19.4521 59.8564C20.9019 67.518 22.1922 74.4082 23.12 79.383C23.5839 81.8703 23.9571 83.8788 24.2144 85.2653C24.343 85.9585 24.4427 86.4963 24.5101 86.8607L24.6129 87.4159C24.6129 87.4163 24.6129 87.4159 26.5901 87.0505C26.5901 89.0612 26.59 89.0612 26.5901 89.0612H40.7211L41.2736 87.9379C43.4446 83.5236 45.3496 79.3335 47.2119 75.2374C50.4756 68.0588 53.608 61.1691 57.8103 53.8681C59.5243 56.997 61.8779 61.255 64.3602 65.7458C69.1825 74.4702 74.4905 84.0732 76.5388 87.9835L77.0867 89.0295L78.267 89.0605C80.3249 89.1147 83.4408 89.1144 86.0206 89.1011C87.3151 89.0945 88.4826 89.0844 89.3264 89.0761C89.7483 89.0719 90.0896 89.0682 90.3254 89.0655L90.6923 89.0611C90.6923 89.0611 90.6927 89.0611 90.6669 87.0505ZM56.684 51.8048C57.0746 51.1386 57.4741 50.4694 57.8834 49.7965C58.1927 50.3708 58.5672 51.0603 58.996 51.8457C60.7178 54.999 63.3153 59.6984 66.079 64.6988C70.9193 73.4562 76.2696 83.1364 78.3199 87.0505C82.3646 87.157 90.6669 87.0505 90.6669 87.0505L92.6253 87.5061L92.2676 89.0409L90.6923 89.0611L90.6669 87.0505C90.6669 87.0505 104.708 26.8107 106.716 14.4682C106.885 13.4317 106.969 12.733 106.952 12.4361C106.537 12.4681 106.066 12.4937 105.554 12.5138C100.959 12.6947 93.1151 12.4361 93.1151 12.4361L80.6616 64.1659L65.2278 35.2143L50.7519 35.0014L35.6375 60.7599L27.2287 13.3941C27.2287 13.3941 19.3972 13.1543 14.4669 13.298C13.7071 13.3202 13.0163 13.3514 12.4336 13.3941C12.5673 14.0404 12.7037 14.7033 12.8426 15.3815C18.0101 40.6175 26.5901 87.0505 26.5901 87.0505H39.4693C41.5838 82.7511 43.4649 78.615 45.3174 74.5418C48.7653 66.9607 52.1141 59.5976 56.684 51.8048ZM115.958 72.9057H162.308L162.549 74.6398C162.837 76.7159 162.887 79.776 162.874 82.2185C162.867 83.4606 162.844 84.5799 162.822 85.3886C162.811 85.7933 162.8 86.1209 162.792 86.3482C162.788 86.4619 162.785 86.5505 162.783 86.6111L162.779 86.7041L162.779 86.7055C162.779 86.7057 162.779 86.7062 160.77 86.6248C160.77 86.6248 161.089 78.7482 160.557 74.9164H117.768C117.48 77.6574 117.387 82.0605 117.357 84.6141C117.343 85.8286 117.343 86.6248 117.343 86.6248C115.332 86.6248 115.332 86.6247 115.332 86.6246V86.6229L115.332 86.6183L115.332 86.5341L115.333 86.2799C115.334 86.0596 115.335 85.7413 115.339 85.347C115.345 84.5588 115.359 83.4651 115.386 82.2432C115.439 79.8209 115.546 76.8195 115.769 74.7059L115.958 72.9057ZM117.343 86.6248H160.77L162.779 86.7055L162.701 88.6355H115.332V86.6246L117.343 86.6248ZM112.766 37.6624C113.724 26.3798 120.004 18.7161 130.435 14.6714C140.653 10.8395 152.361 13.7134 159.28 21.59C170.669 34.4692 165.879 54.5863 149.594 61.7178C145.975 63.3144 142.25 64.2724 138.524 64.0595C123.41 63.9531 111.595 52.1382 112.766 37.6624ZM160.79 20.2623C153.301 11.7372 140.703 8.67352 129.729 12.7887L129.718 12.7926L129.708 12.7967C124.218 14.9255 119.719 18.048 116.463 22.2148C113.203 26.3882 111.27 31.5071 110.762 37.4923L110.762 37.5003C109.487 53.2617 122.342 65.9304 138.46 66.0698C142.586 66.295 146.618 65.2278 150.402 63.559C167.854 55.9153 173.134 34.2266 160.79 20.2623ZM139.147 27.9647L139.132 27.9644C133.258 27.8741 128.072 32.7971 127.975 38.3173C127.983 44.6732 132.85 49.4889 139.801 49.4889C145.286 49.4889 149.613 45.0718 149.712 39.0308C149.704 32.8225 144.986 27.9647 139.163 27.9647H139.147ZM151.723 39.0461C151.616 46.0711 146.507 51.4996 139.801 51.4996C131.818 51.4996 125.964 45.8583 125.964 38.301C126.071 31.5953 132.244 25.8476 139.163 25.954C146.188 25.954 151.723 31.8082 151.723 39.0461ZM176.893 14.1392C176.893 14.1392 188.708 11.7975 194.669 12.3297C201.055 12.8619 207.229 14.2456 212.87 17.8646C223.408 24.5703 229.368 41.6007 217.766 52.6704C217.589 52.8182 217.354 53.0398 217.087 53.2919C216.887 53.4811 216.668 53.6875 216.442 53.8929C215.883 54.3996 215.278 54.8997 214.786 55.1185C215.238 55.4988 215.755 55.9843 216.322 56.557C221.63 61.9159 231.369 74.915 234.158 80.877C230.007 83.3251 226.814 84.9217 222.662 86.6248C222.091 85.7577 221.52 84.8821 220.948 84.0041C218.638 80.4629 216.301 76.8802 213.828 73.6391C211.593 70.7652 208.612 67.6785 206.058 65.3368C201.694 61.3985 190.518 62.5693 190.518 62.5693L189.347 86.3055L175.403 86.199L176.893 14.1392ZM192.438 64.4559L191.26 88.3308L173.351 88.1941L174.916 12.4812L176.502 12.1668L176.893 14.1392C176.502 12.1668 176.502 12.1669 176.502 12.1668L176.541 12.1593L176.646 12.1389C176.737 12.1213 176.87 12.0957 177.041 12.0636C177.382 11.9993 177.875 11.9084 178.484 11.8013C179.701 11.5872 181.388 11.3071 183.266 11.0436C186.956 10.5261 191.605 10.0386 194.841 10.3264C201.399 10.8734 207.932 12.3091 213.951 16.1693C219.687 19.82 224.123 26.2221 225.588 33.2188C227.069 40.2885 225.522 48.0496 219.154 54.1252L219.105 54.1718L219.053 54.2151C218.9 54.3433 218.744 54.491 218.538 54.6871C218.368 54.8493 218.163 55.0445 217.895 55.2892C220.377 57.8194 223.627 61.7551 226.675 65.7875C230.552 70.9168 234.339 76.5174 235.979 80.0251L236.754 81.6806L235.179 82.609C230.951 85.1024 227.672 86.7429 223.426 88.485L221.894 89.1135L220.983 87.7307C220.4 86.8457 219.822 85.9582 219.244 85.0727C216.94 81.5404 214.657 78.0403 212.235 74.8662C210.089 72.1084 207.198 69.1101 204.705 66.8247C203.947 66.1424 202.775 65.5879 201.269 65.1854C199.783 64.7882 198.122 64.5784 196.531 64.4833C194.958 64.3893 193.504 64.4103 192.438 64.4559ZM206.759 32.2589L206.709 32.1945C204.534 29.4113 200.742 28.1068 197.115 27.5705C195.35 27.3095 193.731 27.2464 192.552 27.2495C192.533 27.2496 192.514 27.2497 192.495 27.2497L192.137 47.6274C192.16 47.6276 192.182 47.6278 192.205 47.6279C193.455 47.636 195.16 47.6068 196.996 47.4597C198.84 47.3119 200.766 47.0489 202.473 46.6049C204.218 46.1513 205.54 45.5569 206.343 44.8663L206.352 44.8589L206.36 44.8516C210.023 41.772 209.897 35.6657 206.814 32.3189L206.759 32.2589ZM190.092 49.5837L190.518 25.3154C190.518 25.3154 202.971 24.1445 208.293 30.9567C212.018 35.0014 212.338 42.4522 207.654 46.3905C203.078 50.3287 190.092 49.5837 190.092 49.5837ZM291.641 70.1266C293.237 71.9361 295.26 73.5327 297.495 74.7035L298.133 75.0228C299.653 75.7066 301.281 76.2278 302.901 76.741C302.947 76.7555 302.993 76.77 303.039 76.7845C303.642 76.9757 304.245 77.1663 304.839 77.3645L299.411 88.1149C299.411 88.1149 292.811 86.7312 290.896 85.9861C282.7 82.2607 277.165 75.8743 273.333 67.6785C272.375 65.4432 271.417 63.208 270.353 61.1856C266.734 54.5863 261.412 54.267 256.303 60.7599C256.303 68.3171 255.983 86.8377 255.983 86.8377H241.933C241.933 86.8377 241.946 86.1089 241.969 84.827C242.119 76.4965 242.678 44.8079 242.678 37.9817C242.678 29.9987 242.785 12.7554 242.785 12.7554H255.877C255.877 12.7554 255.877 30.5341 256.128 40.1333C256.149 40.9325 256.172 41.6749 256.196 42.3458C256.679 42.1415 257.353 41.7689 258.171 41.2493C261.967 38.8396 268.877 33.2694 274.28 26.6799C274.391 26.5448 274.501 26.4093 274.61 26.2733L284.828 34.5756C282.103 38.3053 277.444 42.1316 274.695 44.2308C273.365 45.2469 272.481 45.8583 272.481 45.8583C272.481 45.8583 273.865 46.0711 274.61 46.284C274.784 46.3226 274.953 46.3716 275.121 46.4285C275.673 46.6166 276.193 46.8914 276.706 47.1618C276.895 47.2616 277.083 47.3608 277.271 47.4549C278.974 48.5193 280.571 49.7965 281.742 51.3931C283.111 53.2667 283.943 55.4818 284.768 57.6751C285.161 58.7215 285.552 59.7629 285.999 60.7599C287.383 64.1659 289.192 67.3591 291.641 70.1266ZM276.951 45.0254C277.26 45.1753 277.539 45.3241 277.776 45.45C277.926 45.5298 278.058 45.6004 278.17 45.6564L278.256 45.6992L278.337 45.7498C280.159 46.8886 281.986 48.326 283.363 50.2041L283.365 50.2068C284.528 51.7986 285.321 53.5574 285.979 55.2153C286.236 55.8621 286.464 56.4701 286.683 57.0553C287.059 58.0556 287.409 58.9895 287.834 59.9374L287.849 59.97L287.862 60.0031C289.182 63.2509 290.882 66.2349 293.147 68.7944L293.148 68.7963C294.578 70.4165 296.399 71.8571 298.411 72.9138C298.417 72.9166 298.422 72.9195 298.428 72.9224L298.995 73.2056C300.432 73.8488 301.932 74.324 303.544 74.8345C304.17 75.0327 304.813 75.2362 305.475 75.457L307.683 76.1931L300.509 90.3997L298.998 90.0828L299.411 88.1149C298.998 90.0828 298.998 90.0829 298.998 90.0828L298.996 90.0825L298.993 90.0817L298.92 90.0664L298.704 90.0205C298.517 89.9807 298.249 89.9231 297.921 89.8517C297.267 89.709 296.373 89.5107 295.416 89.2885C293.574 88.8603 291.287 88.296 290.167 87.8601L290.115 87.8398L290.063 87.8166C281.336 83.8497 275.497 77.0541 271.511 68.5301L271.498 68.5005L271.485 68.4705C270.523 66.2256 269.599 64.0722 268.581 62.1376C266.93 59.1332 265.209 58.1263 263.809 58.0724C262.429 58.0193 260.526 58.8465 258.312 61.4751C258.304 65.3393 258.228 71.4248 258.153 76.6615C258.113 79.4505 258.073 82.003 258.044 83.8582C258.029 84.7859 258.016 85.5392 258.007 86.0608L257.994 86.8689L257.96 88.8484H239.886L239.923 86.8011L240.12 86.8046C239.923 86.8009 239.923 86.8013 239.923 86.8011L239.923 86.7993L239.923 86.7937L239.955 85.0254C239.975 83.8897 240.004 82.2584 240.039 80.2761C240.109 76.3117 240.202 70.9439 240.295 65.33C240.482 54.0907 240.667 41.8987 240.667 37.9817C240.667 33.9845 240.694 27.6732 240.721 22.3649C240.734 19.7099 240.747 17.3045 240.757 15.5629L240.774 12.7438L240.786 10.7447H257.887V12.7554H255.877C257.887 12.7554 257.887 12.7553 257.887 12.7554L257.888 13.6668C257.889 14.2535 257.89 15.1016 257.892 16.1467C257.897 18.2371 257.907 21.1149 257.927 24.2648C257.958 29.1347 258.013 34.6341 258.109 38.8807C259.374 38.0141 260.943 36.8394 262.683 35.3963C266.04 32.6115 269.849 28.9804 273.044 25.0123L274.311 23.4392L287.579 34.2197L286.452 35.762C284.276 38.739 281.03 41.689 278.417 43.8437C277.905 44.2661 277.413 44.6618 276.951 45.0254Z" fill="black"/>
</svg>
