<svg width="279" height="108" viewBox="0 0 279 108" fill="none" xmlns="http://www.w3.org/2000/svg">
<path d="M22.6156 56.8757C22.3913 49.589 22.1671 38.827 22.6156 32.325C24.5213 30.9798 62.1881 30.9798 62.1881 30.9798L61.7397 17.4153H8.1542L7.14526 95.8877H21.8308C21.8308 95.8877 22.3913 80.7538 22.5035 71.4492C34.0501 71.6734 48.0631 70.5523 48.0631 70.5523L47.7267 57.4362C47.7267 57.4362 33.4896 57.7725 22.6156 56.8757Z" fill="white"/>
<path d="M70.9856 26.8319C70.8735 35.0155 70.5372 94.6546 70.8735 95.4393C71.2098 96.3362 101.926 95.7756 101.926 95.7756L102.038 81.7627C102.038 81.7627 93.9668 81.9869 85.7833 81.6506C85.7833 61.8083 86.1196 18.5363 86.0075 18.0879C86.0075 17.7516 70.8735 18.0879 70.8735 18.0879C70.8735 18.0879 70.9856 24.2536 70.9856 26.8319Z" fill="white"/>
<path d="M258.473 28.5135L245.357 77.1664L244.46 75.7091C240.872 69.6555 237.958 63.6019 235.155 57.7725C233.249 53.8489 231.456 50.1495 229.55 46.4501C225.178 46.2259 218.227 46.338 216.658 46.338L203.43 72.0097L202.869 70.216C202.869 70.1039 201.076 64.1624 200.627 62.7051C200.515 62.2567 200.403 61.8083 200.291 61.3598C193.789 39.9481 184.596 26.0472 172.041 18.8726C162.624 13.3795 149.844 11.0254 137.737 12.5948C137.513 14.3885 137.401 16.2942 137.289 18.2C137.177 20.1057 137.065 22.2357 136.952 24.1415C147.49 24.8141 158.476 26.3835 167.22 33.4461C179.664 43.5354 183.812 60.7993 186.951 73.467C187.847 77.1664 188.408 80.978 188.856 84.6774C189.081 85.9105 189.193 87.2558 189.305 88.7131C189.529 90.9552 189.753 93.1973 190.089 94.9909L205.896 95.2151C211.501 85.9105 220.918 66.6287 222.039 64.4987L222.712 62.9293L223.384 64.3866C223.384 64.4987 223.496 64.6108 223.608 64.8351C226.299 71.4492 233.025 87.48 237.173 95.6635C238.967 95.5514 241.209 95.4393 244.011 95.4393C245.917 95.4393 247.935 95.4393 249.841 95.3272C251.971 95.3272 253.989 95.3272 254.885 95.3272C257.576 85.1258 270.804 35.8002 271.701 28.4014L258.473 28.5135ZM153.656 34.2308C139.419 28.4014 122.155 33.334 113.074 45.7775C107.693 53.4005 105.339 61.8083 107.245 71.0008C111.056 89.2736 128.433 97.6814 142.445 95.6635C149.732 94.9909 155.898 92.0762 161.391 87.5921C180.112 72.346 175.852 43.1991 153.656 34.2308ZM142.221 81.5385C131.347 82.6595 122.379 75.8212 121.034 65.844C119.801 55.8668 127.312 46.2259 138.746 45.2169C146.93 44.4322 157.467 48.1316 158.252 61.5841C159.373 72.346 152.983 80.3054 142.221 81.5385Z" fill="white"/>
<path fill-rule="evenodd" clip-rule="evenodd" d="M60.0692 30.9838C52.0936 31.0076 24.2471 31.1733 22.6154 32.3251C22.167 38.8271 22.3912 49.589 22.6154 56.8757C33.4894 57.7726 47.7266 57.4362 47.7266 57.4362L48.0629 70.5524C48.0388 70.5543 35.6822 71.5419 24.6208 71.4757C23.9084 71.4714 23.2013 71.4627 22.5033 71.4492C22.4951 72.1268 22.4846 72.8353 22.472 73.5667C22.3125 82.8778 21.8307 95.8878 21.8307 95.8878H7.14508L8.15402 17.4153H61.7395L62.1879 30.9798C62.1879 30.9798 61.4089 30.9798 60.0692 30.9838ZM24.6368 34.0381C24.7755 34.0211 24.9254 34.004 25.0865 33.9869C26.24 33.8644 27.8214 33.7563 29.7079 33.6624C33.4724 33.4749 38.3321 33.3493 43.1532 33.2653C47.9697 33.1814 52.7289 33.1395 56.2852 33.1185C58.063 33.108 59.5394 33.1027 60.5711 33.1001C61.0869 33.0988 61.4915 33.0981 61.767 33.0978L62.1876 33.0975C62.1878 33.0975 62.1879 33.0975 62.1879 30.9798L62.1876 33.0975H64.3768L63.7883 15.2976L6.06339 15.2976L5 98.0054H23.8713L23.9469 95.9661L21.8307 95.8878C23.9469 95.9661 23.9469 95.9663 23.9469 95.9661L23.9713 95.2955C23.9868 94.8627 24.0092 94.2342 24.0364 93.4512C24.0908 91.8851 24.1644 89.7 24.2416 87.2237C24.3734 82.9932 24.5158 77.9018 24.5896 73.5932C29.8342 73.6251 35.3505 73.4226 39.7209 73.1998C42.2083 73.073 44.3329 72.9391 45.8366 72.8368C46.5886 72.7857 47.1856 72.7425 47.5955 72.7119C47.8004 72.6967 47.9586 72.6846 48.066 72.6763L48.1885 72.6667L48.2308 72.6634C48.231 72.6634 48.2318 72.6633 48.0629 70.5524L48.2308 72.6634L50.2313 72.5033L49.7894 55.2692L47.6381 55.32L47.5196 55.3226C47.4146 55.3248 47.2584 55.3279 47.0552 55.3316C46.6488 55.339 46.0548 55.3485 45.3075 55.3572C43.8125 55.3747 41.7055 55.3886 39.2608 55.3747C34.9267 55.35 29.5638 55.2378 24.676 54.9065C24.4922 48.357 24.351 39.9044 24.6368 34.0381ZM23.5241 34.2254C23.5254 34.225 23.5268 34.2246 23.5284 34.2241C23.5047 34.2329 23.5009 34.2326 23.5241 34.2254ZM101.926 95.7757C101.849 95.7771 71.2092 96.3351 70.8733 95.4393C70.537 94.6546 70.8733 35.0155 70.9854 26.832C70.9854 24.2536 70.8733 18.0879 70.8733 18.0879C70.8733 18.0879 86.0073 17.7516 86.0073 18.0879C86.0647 18.3174 86.0046 29.7637 85.9323 43.5452C85.8633 56.6918 85.7831 71.9634 85.7831 81.6506C91.4117 81.8819 96.9872 81.8481 99.92 81.8044C101.251 81.7846 102.038 81.7627 102.038 81.7627L101.926 95.7757ZM68.8905 96.1829C68.8207 95.9969 68.7928 95.8457 68.7859 95.8094C68.7707 95.7308 68.7615 95.6616 68.7558 95.6153C68.7443 95.5207 68.7366 95.4236 68.7309 95.3399C68.7192 95.1674 68.7097 94.9487 68.7014 94.6996C68.6847 94.1963 68.6709 93.4946 68.6595 92.6297C68.6366 90.8962 68.6225 88.461 68.6155 85.5443C68.6015 79.7086 68.6155 71.9195 68.6435 63.9028C68.6995 47.8921 68.8115 30.9474 68.8677 26.8177C68.8675 25.545 68.8399 23.3838 68.8119 21.5249C68.7979 20.5948 68.784 19.7449 68.7735 19.1276L68.7561 18.1308L68.756 18.1275L68.756 18.1264L68.7177 16.0176L70.8263 15.9707L70.8733 18.0879C70.8263 15.9707 70.8261 15.9707 70.8263 15.9707L71.4799 15.9569C71.895 15.9483 72.4877 15.9365 73.1988 15.9233C74.6205 15.897 76.5179 15.8653 78.4168 15.8442C80.312 15.8232 82.2229 15.8124 83.6661 15.8285C84.3826 15.8364 85.012 15.8512 85.4745 15.8769C85.6957 15.8892 85.9339 15.9068 86.1401 15.9366C86.2267 15.9491 86.4111 15.9775 86.6134 16.0427C86.7 16.0706 86.9323 16.1487 87.1845 16.3197C87.3545 16.4349 88.0246 16.9277 88.1149 17.8737C88.1167 17.8903 88.1176 17.9013 88.118 17.9055L88.1181 17.9071C88.1226 17.9541 88.1251 17.9955 88.1267 18.0227C88.1298 18.0791 88.1319 18.1394 88.1334 18.1947C88.1365 18.3085 88.1389 18.4582 88.1408 18.6351C88.1446 18.9917 88.1468 19.4973 88.1475 20.1314C88.1491 21.4016 88.1451 23.2104 88.1372 25.426C88.1215 29.858 88.0899 35.9311 88.0549 42.6077L88.0499 43.5575C87.9856 55.8147 87.9116 69.9105 87.9018 79.6072C91.2422 79.7093 94.4545 79.7267 96.9697 79.7151C98.4794 79.7082 99.7346 79.6908 100.611 79.6751C101.05 79.6673 101.393 79.66 101.626 79.6546C101.743 79.6519 101.832 79.6497 101.891 79.6482L101.958 79.6464L101.978 79.6459L104.173 79.5849L104.027 97.8554L101.965 97.893L101.926 95.7757C101.964 97.893 101.965 97.893 101.965 97.893L101.963 97.893L101.959 97.8931L101.618 97.8991C101.392 97.903 101.061 97.9086 100.64 97.9154C99.7975 97.929 98.5943 97.9474 97.1496 97.9667C94.2608 98.0053 90.4034 98.0474 86.5335 98.0615C82.6681 98.0755 78.7724 98.0616 75.814 97.9873C74.3407 97.9502 73.0658 97.8975 72.1335 97.8221C71.6768 97.7852 71.2433 97.7384 70.8912 97.6731C70.7256 97.6424 70.4914 97.5923 70.2549 97.5045C70.1393 97.4616 69.9429 97.3807 69.732 97.2394C69.5542 97.1202 69.1208 96.7971 68.8905 96.1829ZM256.846 26.4096L274.093 26.2634L273.803 28.6562C273.56 30.6573 272.528 35.2672 271.132 41.0431C269.719 46.8832 267.895 54.0738 266.016 61.3433C263.106 72.6042 260.06 84.0797 258.21 91.0467C257.672 93.0742 257.235 94.7198 256.933 95.8673L256.517 97.4449H249.903C247.954 97.557 245.907 97.557 244.042 97.557H244.011C241.267 97.557 239.072 97.6666 237.305 97.7771L235.914 97.864L235.284 96.6209C231.535 89.2243 225.736 75.5637 222.63 68.0311C222.585 68.1201 222.54 68.211 222.493 68.3037C219.405 74.4781 212.286 88.7113 207.71 96.3079L207.082 97.3499L188.327 97.0838L188.008 95.3812C187.655 93.498 187.423 91.1829 187.204 88.9891L187.195 88.8997L187.193 88.8756C187.08 87.4052 186.974 86.1658 186.773 85.0562L186.761 84.9945L186.754 84.9322C186.309 81.264 185.761 77.5499 184.894 73.9716C184.893 73.9697 184.893 73.9679 184.892 73.966L184.845 73.7731C181.671 60.9642 177.618 44.6046 165.889 35.0931C157.701 28.4798 147.314 26.9249 136.817 26.2549L134.714 26.1206L134.838 24.0171C134.894 23.0683 134.95 22.0629 135.006 21.0533L135.006 21.0456C135.062 20.0399 135.118 19.0302 135.175 18.0757L135.177 18.0386C135.287 16.1585 135.403 14.1949 135.636 12.3322L135.839 10.7055L137.465 10.4947C149.977 8.87275 163.234 11.2865 173.099 17.0386C186.324 24.5995 195.744 39.1003 202.317 60.7446L202.332 60.7951L202.668 62.1368C202.904 62.9064 203.452 64.7134 203.945 66.3565C203.947 66.363 203.948 66.3694 203.95 66.3758L215.367 44.2203H216.658C216.921 44.2203 217.357 44.2168 217.921 44.2123C220.559 44.1911 225.996 44.1474 229.658 44.3352L230.875 44.3976L231.432 45.4803C233.297 49.0992 235.053 52.7154 236.896 56.5107L237.064 56.855C239.419 61.7536 241.823 66.747 244.623 71.7496L256.846 26.4096ZM245.356 77.1665L244.46 75.7091C244.251 75.3572 244.045 75.0053 243.841 74.6534C240.534 68.9524 237.795 63.263 235.155 57.7726L234.996 57.4454C233.149 53.643 231.402 50.0465 229.55 46.4501C225.965 46.2662 220.646 46.3085 217.982 46.3297C217.397 46.3344 216.94 46.338 216.658 46.338L203.43 72.0097L202.869 70.2161C202.869 70.1864 202.743 69.7482 202.55 69.0929C202.014 67.2727 200.957 63.7767 200.627 62.7051L200.291 61.3599C193.789 39.9481 184.596 26.0473 172.041 18.8726C162.624 13.3795 149.844 11.0254 137.737 12.5948C137.513 14.3883 137.401 16.2938 137.289 18.1993C137.233 19.1522 137.176 20.1618 137.12 21.1708C137.064 22.1797 137.008 23.1886 136.952 24.1415C147.49 24.8141 158.476 26.3836 167.22 33.4461C179.506 43.4075 183.705 60.3627 186.83 72.983L186.95 73.4671C187.847 77.1665 188.408 80.978 188.856 84.6774C189.08 85.9105 189.192 87.2558 189.305 88.7131C189.529 90.9552 189.753 93.1973 190.089 94.9909L205.896 95.2151C210.41 87.721 217.398 73.7544 220.531 67.4902C220.936 66.6818 221.276 66.0017 221.539 65.4803C221.595 65.3677 221.648 65.2625 221.698 65.165C221.847 64.8689 221.962 64.644 222.039 64.4988L222.711 62.9293L223.384 64.3867C223.384 64.456 223.427 64.5252 223.486 64.621C223.523 64.6802 223.565 64.7494 223.608 64.8351C223.662 64.9672 223.717 65.1031 223.774 65.2425C223.803 65.3136 223.833 65.3857 223.862 65.4586C223.872 65.4814 223.881 65.5044 223.891 65.5274C226.744 72.5095 233.163 87.7529 237.173 95.6636C238.966 95.5515 241.209 95.4393 244.011 95.4393C245.917 95.4393 247.935 95.4393 249.84 95.3272H254.885C255.189 94.1756 255.627 92.5253 256.166 90.4929C260.073 75.7732 269.3 41.0137 271.343 30.5222C271.517 29.6312 271.638 28.9152 271.701 28.4014L258.472 28.5135L245.356 77.1665ZM107.245 71.0008C105.339 61.8083 107.693 53.4005 113.074 45.7775C122.155 33.334 139.419 28.4014 153.656 34.2308C175.852 43.1991 180.112 72.346 161.391 87.5921C155.898 92.0762 149.732 94.9909 142.445 95.6636C128.432 97.6814 111.056 89.2737 107.245 71.0008ZM162.73 89.2326C156.981 93.9257 150.444 97.0403 142.694 97.7673C127.778 99.8874 109.245 90.9603 105.172 71.4332L105.171 71.4307C103.126 61.5667 105.687 52.5707 111.344 44.5562L111.354 44.5426L111.364 44.5292C121.014 31.3047 139.311 26.0712 154.454 32.2694C178.167 41.8544 182.674 72.9886 162.73 89.2326ZM158.252 61.5841C157.467 48.1317 146.929 44.4322 138.746 45.217C127.311 46.2259 119.8 55.8668 121.034 65.844C122.379 75.8212 131.347 82.6595 142.221 81.5385C152.983 80.3054 159.373 72.346 158.252 61.5841ZM141.992 79.4332C146.892 78.8691 150.637 76.8024 153.042 73.8085C155.448 70.8122 156.656 66.7079 156.146 61.8035L156.141 61.7555L156.138 61.7074C155.781 55.5905 153.258 51.9335 150.097 49.8226C146.846 47.6509 142.686 46.9665 138.948 47.325L138.94 47.3257L138.932 47.3264C128.636 48.235 122.062 56.8483 123.134 65.5726C124.318 74.3093 132.165 80.4406 141.992 79.4332Z" fill="black"/>
</svg>
