<svg width="279" height="108" viewBox="0 0 279 108" fill="none" xmlns="http://www.w3.org/2000/svg">
<path d="M21.6153 55.8165C21.3911 48.5298 21.1669 37.7679 21.6153 31.2659C23.5211 29.9206 61.1879 29.9206 61.1879 29.9206L60.7395 16.3561H7.15395L6.14502 94.8286H20.8306C20.8306 94.8286 21.3911 79.6946 21.5032 70.39C33.0499 70.6142 47.0628 69.4932 47.0628 69.4932L46.7265 56.377C46.7265 56.377 32.4894 56.7134 21.6153 55.8165Z" fill="url(#paint0_linear_43_230)"/>
<path fill-rule="evenodd" clip-rule="evenodd" d="M59.0692 29.9246C51.0936 29.9484 23.2471 30.1141 21.6154 31.2659C21.167 37.7679 21.3912 48.5298 21.6154 55.8165C32.4894 56.7134 46.7266 56.3771 46.7266 56.3771L47.0629 69.4932C47.0388 69.4951 34.6822 70.4827 23.6208 70.4165C22.9084 70.4122 22.2013 70.4035 21.5033 70.39C21.4951 71.0676 21.4846 71.7761 21.472 72.5075C21.3125 81.8186 20.8307 94.8286 20.8307 94.8286H6.14508L7.15402 16.3561H60.7395L61.1879 29.9206C61.1879 29.9206 60.4089 29.9206 59.0692 29.9246ZM23.6368 32.9789C23.7755 32.9619 23.9254 32.9448 24.0865 32.9277C25.24 32.8052 26.8214 32.6971 28.7079 32.6032C32.4724 32.4158 37.3321 32.2901 42.1532 32.2061C46.9697 32.1222 51.7289 32.0803 55.2852 32.0593C57.063 32.0488 58.5394 32.0435 59.5711 32.0409C60.0869 32.0396 60.4915 32.0389 60.767 32.0386L61.1876 32.0383C61.1878 32.0383 61.1879 32.0383 61.1879 29.9206L61.1876 32.0383H63.3768L62.7883 14.2384L5.06339 14.2384L4 96.9463H22.8713L22.9469 94.907L20.8307 94.8286C22.9469 94.907 22.9469 94.9071 22.9469 94.907L22.9713 94.2363C22.9868 93.8035 23.0092 93.1751 23.0364 92.392C23.0908 90.8259 23.1644 88.6408 23.2416 86.1645C23.3734 81.934 23.5158 76.8426 23.5896 72.534C28.8342 72.5659 34.3505 72.3634 38.7209 72.1406C41.2083 72.0138 43.3329 71.8799 44.8366 71.7776C45.5886 71.7265 46.1856 71.6833 46.5955 71.6527C46.8004 71.6375 46.9586 71.6254 47.066 71.6171L47.1885 71.6075L47.2308 71.6042C47.231 71.6042 47.2318 71.6041 47.0629 69.4932L47.2308 71.6042L49.2313 71.4441L48.7894 54.2101L46.6381 54.2608L46.5196 54.2634C46.4146 54.2656 46.2584 54.2687 46.0552 54.2724C45.6488 54.2798 45.0548 54.2894 44.3075 54.298C42.8125 54.3155 40.7055 54.3294 38.2608 54.3155C33.9267 54.2908 28.5638 54.1786 23.676 53.8473C23.4922 47.2978 23.351 38.8452 23.6368 32.9789ZM22.5241 33.1662C22.5254 33.1658 22.5268 33.1654 22.5284 33.1649C22.5047 33.1737 22.5009 33.1734 22.5241 33.1662Z" fill="black"/>
<path d="M70.8776 25.7729C70.7655 33.9565 70.4292 93.5956 70.7655 94.3803C71.1018 95.2771 101.818 94.7166 101.818 94.7166L101.93 80.7037C101.93 80.7037 93.8588 80.9279 85.6753 80.5916C85.6753 60.7492 86.0116 17.4773 85.8995 17.0289C85.8995 16.6926 70.7655 17.0289 70.7655 17.0289C70.7655 17.0289 70.8776 23.1946 70.8776 25.7729Z" fill="url(#paint1_linear_43_230)"/>
<path fill-rule="evenodd" clip-rule="evenodd" d="M101.818 94.7166C101.741 94.718 71.1014 95.276 70.7655 94.3803C70.4292 93.5956 70.7655 33.9565 70.8776 25.7729C70.8776 23.1946 70.7655 17.0289 70.7655 17.0289C70.7655 17.0289 85.8995 16.6926 85.8995 17.0289C85.9569 17.2584 85.8968 28.7049 85.8244 42.4866C85.7554 55.6331 85.6753 70.9045 85.6753 80.5916C91.3038 80.8229 96.8794 80.789 99.8122 80.7454C101.144 80.7255 101.93 80.7037 101.93 80.7037L101.818 94.7166ZM68.7827 95.1239C68.7149 94.9432 68.6866 94.7953 68.6787 94.7538L68.678 94.7504C68.6629 94.6717 68.6536 94.6026 68.648 94.5563C68.6365 94.4616 68.6288 94.3646 68.6231 94.2809C68.6114 94.1084 68.6019 93.8897 68.5936 93.6406C68.5769 93.1373 68.5631 92.4356 68.5517 91.5707C68.5287 89.8371 68.5147 87.402 68.5077 84.4853C68.4937 78.6496 68.5077 70.8605 68.5357 62.8438C68.5917 46.833 68.7036 29.8882 68.7599 25.7586C68.7597 24.4859 68.7321 22.3248 68.7041 20.4659C68.6901 19.5357 68.6761 18.6859 68.6656 18.0685L68.6482 17.0684L68.6482 17.0674L70.7655 17.0289C70.7185 14.9117 70.7185 14.9117 70.7187 14.9117L71.3721 14.8978C71.7872 14.8893 72.3799 14.8774 73.091 14.8643C74.5127 14.8379 76.4101 14.8063 78.309 14.7852C80.2042 14.7641 82.1151 14.7534 83.5583 14.7694C84.2747 14.7774 84.9042 14.7922 85.3667 14.8179C85.5879 14.8302 85.8261 14.8477 86.0323 14.8775C86.1188 14.89 86.3033 14.9185 86.5056 14.9837C86.5922 15.0116 86.8244 15.0897 87.0766 15.2606C87.2467 15.3759 87.917 15.8689 88.0071 16.8151C88.0089 16.8315 88.0098 16.8423 88.0102 16.8465L88.0103 16.8481C88.0148 16.895 88.0173 16.9365 88.0188 16.9636C88.022 17.02 88.024 17.0804 88.0256 17.1357C88.0287 17.2495 88.0311 17.3991 88.033 17.576C88.0368 17.9327 88.0389 18.4383 88.0397 19.0724C88.0413 20.3426 88.0373 22.1514 88.0294 24.3669C88.0136 28.7989 87.9821 34.8721 87.9471 41.5486L87.9421 42.4926C87.8778 54.7511 87.8038 68.8499 87.794 78.5482C91.1344 78.6503 94.3467 78.6677 96.8619 78.6561C98.3716 78.6491 99.6268 78.6317 100.504 78.6161C100.942 78.6083 101.285 78.6009 101.519 78.5955C101.635 78.5928 101.724 78.5906 101.784 78.5891L101.85 78.5874L101.871 78.5868L104.065 78.5259L103.919 96.7963L101.857 96.834L101.818 94.7166C101.857 96.834 101.857 96.834 101.857 96.834L101.855 96.834L101.851 96.8341L101.51 96.8401C101.284 96.844 100.953 96.8496 100.532 96.8564C99.6897 96.87 98.4865 96.8884 97.0418 96.9077C94.153 96.9463 90.2955 96.9884 86.4256 97.0025C82.5603 97.0165 78.6645 97.0026 75.7062 96.9282C74.2329 96.8912 72.958 96.8384 72.0257 96.7631C71.569 96.7261 71.1355 96.6794 70.7834 96.6141C70.6178 96.5833 70.3836 96.5333 70.1471 96.4454C70.0315 96.4025 69.835 96.3217 69.6242 96.1804C69.4464 96.0612 69.013 95.7381 68.7827 95.1239ZM70.7655 17.0289L68.6482 17.0674L68.6098 14.9586L70.7187 14.9117L70.7655 17.0289Z" fill="black"/>
<path d="M259.171 28.5134L246.055 77.1664L245.158 75.709C241.571 69.6554 238.656 63.6019 235.854 57.7725C233.948 53.8488 232.154 50.1494 230.249 46.45C225.877 46.2258 218.926 46.3379 217.357 46.3379L204.129 72.0096L203.568 70.216C203.568 70.1039 201.774 64.1624 201.326 62.705C201.214 62.2566 201.102 61.8082 200.99 61.3598C194.488 39.948 185.295 26.0472 172.74 18.8725C163.323 13.3795 150.543 11.0253 138.436 12.5947C138.212 14.3884 138.1 16.2942 137.988 18.1999C137.875 20.1057 137.763 22.2356 137.651 24.1414C148.189 24.814 159.175 26.3835 167.919 33.446C180.363 43.5353 184.51 60.7993 187.649 73.467C188.546 77.1664 189.107 80.9779 189.555 84.6773C189.779 85.9105 189.891 87.2557 190.004 88.7131C190.228 90.9551 190.452 93.1972 190.788 94.9909L206.595 95.2151C212.2 85.9105 221.617 66.6287 222.738 64.4987L223.41 62.9292L224.083 64.3866C224.083 64.4987 224.195 64.6108 224.307 64.835C226.998 71.4491 233.724 87.4799 237.872 95.6635C239.665 95.5514 241.907 95.4393 244.71 95.4393C246.616 95.4393 248.634 95.4393 250.539 95.3272C252.669 95.3272 254.687 95.3272 255.584 95.3272C258.275 85.1257 271.503 35.8002 272.4 28.4013L259.171 28.5134ZM154.355 34.2307C140.117 28.4013 122.854 33.3339 113.773 45.7774C108.392 53.4004 106.038 61.8082 107.944 71.0007C111.755 89.2736 129.131 97.6813 143.144 95.6635C150.431 94.9909 156.597 92.0762 162.09 87.592C180.811 72.3459 176.551 43.199 154.355 34.2307ZM142.92 81.5384C132.046 82.6595 123.078 75.8211 121.732 65.8439C120.499 55.8667 128.01 46.2258 139.445 45.2169C147.628 44.4321 158.166 48.1316 158.951 61.584C160.072 72.3459 153.682 80.3053 142.92 81.5384Z" fill="url(#paint2_linear_43_230)"/>
<path fill-rule="evenodd" clip-rule="evenodd" d="M257.545 26.4096L274.792 26.2634L274.502 28.6562C274.259 30.6573 273.227 35.2672 271.831 41.0431C270.418 46.8832 268.593 54.0738 266.715 61.3433C263.805 72.6025 260.759 84.0763 258.91 91.0436C258.372 93.0725 257.935 94.7193 257.632 95.8673L257.216 97.4449H250.602C248.653 97.557 246.606 97.557 244.741 97.557H244.71C241.966 97.557 239.771 97.6666 238.004 97.7771L236.613 97.864L235.983 96.6209C232.234 89.2243 226.435 75.5637 223.328 68.0311C223.284 68.12 223.239 68.2108 223.192 68.3035C220.104 74.4777 212.985 88.7112 208.409 96.3079L207.781 97.3499L189.026 97.0838L188.707 95.3812C188.354 93.4978 188.122 91.1825 187.903 88.9885L187.894 88.8997L187.892 88.8756C187.779 87.4052 187.673 86.1658 187.472 85.0562L187.46 84.9945L187.453 84.9322C187.008 81.2636 186.46 77.5489 185.592 73.9702C185.592 73.9688 185.592 73.9674 185.591 73.966L185.543 73.7731C182.37 60.9635 178.316 44.6029 166.586 35.0916C158.398 28.4795 148.012 26.9248 137.516 26.2549L135.413 26.1206L135.537 24.0171C135.593 23.0683 135.649 22.0629 135.705 21.0533C135.761 20.0452 135.817 19.0325 135.873 18.0757L135.876 18.0386C135.986 16.1585 136.102 14.1949 136.335 12.3322L136.538 10.7055L138.164 10.4947C150.676 8.87275 163.932 11.2865 173.798 17.0386C187.023 24.5995 196.443 39.1003 203.016 60.7446L203.031 60.7951L203.367 62.1367C203.603 62.9063 204.151 64.7134 204.644 66.3565C204.645 66.363 204.647 66.3694 204.649 66.3758L216.066 44.2203H217.357C217.62 44.2203 218.056 44.2168 218.62 44.2123C221.258 44.1911 226.695 44.1474 230.357 44.3352L231.573 44.3976L232.131 45.4803C233.996 49.0996 235.752 52.7163 237.596 56.5122L237.762 56.855C240.118 61.7536 242.522 66.747 245.322 71.7496L257.545 26.4096ZM246.055 77.1665L245.158 75.7091C244.95 75.3572 244.744 75.0053 244.54 74.6534C241.233 68.9524 238.494 63.263 235.854 57.7726L235.695 57.4461C233.848 53.6434 232.102 50.0468 230.249 46.4501C226.664 46.2662 221.345 46.3085 218.681 46.3297C218.096 46.3344 217.639 46.338 217.357 46.338L204.129 72.0097L203.568 70.2161C203.568 70.1864 203.442 69.7482 203.249 69.093C202.713 67.2727 201.656 63.7767 201.326 62.7051L200.99 61.3599C194.488 39.9481 185.295 26.0473 172.74 18.8726C163.323 13.3795 150.543 11.0254 138.436 12.5948C138.212 14.3885 138.1 16.2942 137.987 18.2C137.931 19.1529 137.875 20.1618 137.819 21.1708C137.763 22.1797 137.707 23.1886 137.651 24.1415C148.189 24.8141 159.175 26.3836 167.919 33.4461C180.205 43.4075 184.404 60.3627 187.529 72.983C187.57 73.1451 187.61 73.3064 187.649 73.4671C188.546 77.1665 189.107 80.978 189.555 84.6774C189.779 85.9105 189.891 87.2558 190.004 88.7131C190.228 90.9552 190.452 93.1973 190.788 94.9909L206.595 95.2151C211.109 87.7209 218.097 73.7544 221.23 67.4902C221.635 66.6818 221.975 66.0017 222.238 65.4803C222.294 65.3677 222.347 65.2625 222.397 65.165C222.546 64.8689 222.661 64.644 222.738 64.4988L223.41 62.9293L224.083 64.3867C224.083 64.456 224.126 64.5252 224.185 64.621C224.222 64.6802 224.264 64.7495 224.307 64.8351C224.361 64.9672 224.416 65.1031 224.473 65.2425C224.502 65.3136 224.532 65.3857 224.561 65.4586C224.571 65.4814 224.58 65.5044 224.59 65.5274C227.443 72.5094 233.862 87.7528 237.872 95.6636C239.665 95.5515 241.907 95.4393 244.71 95.4393C246.616 95.4393 248.634 95.4393 250.539 95.3272H255.584C255.888 94.1759 256.326 92.5261 256.865 90.4945C260.772 75.7757 269.998 41.014 272.042 30.5222C272.216 29.6312 272.337 28.9152 272.4 28.4014L259.171 28.5135L246.055 77.1665ZM113.773 45.7775C122.853 33.334 140.117 28.4014 154.355 34.2308C176.551 43.1991 180.811 72.346 162.09 87.5921C156.597 92.0762 150.431 94.9909 143.144 95.6636C129.131 97.6814 111.755 89.2737 107.944 71.0008C106.038 61.8083 108.392 53.4005 113.773 45.7775ZM143.393 97.7673C128.477 99.8874 109.944 90.9603 105.871 71.4332L105.87 71.4307C103.825 61.5667 106.386 52.5707 112.043 44.5562L112.053 44.5426L112.062 44.5292C121.713 31.3048 140.009 26.0714 155.152 32.2691C178.866 41.8541 183.373 72.99 163.427 89.2338C157.679 93.9262 151.143 97.0403 143.393 97.7673ZM139.445 45.217C128.01 46.2259 120.499 55.8668 121.732 65.844C123.078 75.8212 132.046 82.6595 142.92 81.5385C153.682 80.3054 160.072 72.346 158.951 61.5841C158.166 48.1317 147.628 44.4322 139.445 45.217ZM142.691 79.4332C147.591 78.8691 151.336 76.8024 153.74 73.8085C156.147 70.8122 157.355 66.7079 156.845 61.8035L156.84 61.7555L156.837 61.7074C156.48 55.5905 153.957 51.9335 150.796 49.8226C147.545 47.6509 143.385 46.9665 139.647 47.325L139.639 47.3257L139.631 47.3264C129.334 48.235 122.761 56.8483 123.833 65.5726C125.017 74.3093 132.864 80.4406 142.691 79.4332Z" fill="black"/>
<defs>
<linearGradient id="paint0_linear_43_230" x1="11.9404" y1="15.8285" x2="65.2745" y2="63.1218" gradientUnits="userSpaceOnUse">
<stop offset="0.118756" stop-color="#76EE99"/>
<stop offset="0.291667" stop-color="#4891FF"/>
<stop offset="0.452857" stop-color="#CB37FF"/>
<stop offset="0.642525" stop-color="#EF76B6"/>
<stop offset="0.865093" stop-color="#FFD159"/>
</linearGradient>
<linearGradient id="paint1_linear_43_230" x1="71.3048" y1="15.8287" x2="116.858" y2="41.0745" gradientUnits="userSpaceOnUse">
<stop offset="0.118756" stop-color="#76EE99"/>
<stop offset="0.291667" stop-color="#4891FF"/>
<stop offset="0.452857" stop-color="#CB37FF"/>
<stop offset="0.642525" stop-color="#EF76B6"/>
<stop offset="0.865093" stop-color="#FFD159"/>
</linearGradient>
<linearGradient id="paint2_linear_43_230" x1="137.701" y1="16.8877" x2="176.192" y2="108.082" gradientUnits="userSpaceOnUse">
<stop offset="0.118756" stop-color="#76EE99"/>
<stop offset="0.291667" stop-color="#4891FF"/>
<stop offset="0.452857" stop-color="#CB37FF"/>
<stop offset="0.642525" stop-color="#EF76B6"/>
<stop offset="0.865093" stop-color="#FFD159"/>
</linearGradient>
</defs>
</svg>
